<svg width="106" height="106" viewBox="0 0 106 106" fill="none" xmlns="http://www.w3.org/2000/svg">
<path d="M41.6898 15.1911L8.56477 48.3161C7.94901 48.9309 7.46049 49.661 7.12719 50.4647C6.79388 51.2684 6.62231 52.1299 6.62231 53C6.62231 53.8701 6.79388 54.7317 7.12719 55.5354C7.46049 56.3391 7.94901 57.0692 8.56477 57.6839L41.6898 90.8089C42.932 92.0511 44.6169 92.749 46.3736 92.749C47.2435 92.749 48.1049 92.5777 48.9085 92.2448C49.7122 91.9119 50.4424 91.424 51.0575 90.8089C51.6726 90.1938 52.1605 89.4636 52.4934 88.6599C52.8263 87.8563 52.9976 86.9949 52.9976 86.125C52.9976 84.3682 52.2998 82.6834 51.0575 81.4411L29.2414 59.625L92.7486 59.625C94.5057 59.625 96.1908 58.927 97.4332 57.6846C98.6757 56.4422 99.3736 54.7571 99.3736 53C99.3736 51.243 98.6757 49.5579 97.4332 48.3154C96.1908 47.073 94.5057 46.375 92.7486 46.375L29.2414 46.375L51.0575 24.5589C51.6749 23.9451 52.1648 23.2153 52.4991 22.4114C52.8334 21.6076 53.0055 20.7456 53.0055 19.875C53.0055 19.0044 52.8334 18.1425 52.4991 17.3386C52.1648 16.5348 51.6749 15.805 51.0575 15.1911C50.4428 14.5754 49.7127 14.0869 48.909 13.7536C48.1053 13.4203 47.2437 13.2487 46.3736 13.2487C45.5036 13.2487 44.642 13.4203 43.8383 13.7536C43.0346 14.0869 42.3045 14.5754 41.6898 15.1911Z" fill="white"/>
</svg>
