<svg width="1007" height="409" viewBox="0 0 1007 409" fill="none" xmlns="http://www.w3.org/2000/svg">
<path d="M0 204.5V409H204.5H409V204.5V5.97537e-06H204.5H0V204.5ZM365.992 204.5V365.992H204.5H43.0082V204.5V43.0083H204.5H365.992V204.5Z" fill="white"/>
<path d="M74.2109 95.7143V118.905H79.2707H84.3305V109.629V100.352H91.4986H98.6666V96.136V91.9195H91.4986H84.3305V86.438V80.9566H93.6068H102.883V76.7401V72.5236H88.547H74.2109V95.7143Z" fill="white"/>
<path d="M186.79 97.3174C145.637 104.232 114.687 130.881 102.207 170.347C97.9902 183.503 96.7252 193.875 97.2312 208.633C97.9058 226.764 101.279 240.425 108.869 255.267C123.879 284.698 149.431 303.926 183.416 311.347C191.259 313.033 216.305 312.78 224.991 310.925C245.652 306.371 263.277 297.264 277.36 283.855C281.998 279.386 289.503 270.615 291.19 267.579C291.612 266.989 285.287 262.098 274.155 254.34C264.373 247.593 256.109 242.028 255.771 242.028C255.434 242.028 254.169 243.377 253.073 244.979C251.977 246.581 248.519 250.376 245.399 253.328C226.509 271.121 199.945 275.675 177.513 264.797C160.985 256.785 149.178 242.028 144.119 223.053C141.504 213.44 141.504 195.477 144.119 186.032C150.275 163.01 166.803 145.807 188.054 140.241C195.56 138.302 210.992 138.302 218.413 140.326C231.569 143.952 244.556 152.807 252.736 163.769L254.422 166.046L267.409 157.107C274.577 152.216 282.757 146.482 285.709 144.458L290.937 140.747L287.226 135.941C272.637 117.051 250.206 103.558 224.738 98.2451C215.715 96.3055 195.476 95.8838 186.79 97.3174Z" fill="white"/>
<path d="M584.83 97.9073C578.168 99.8468 574.963 107.605 578.674 113.002C581.372 117.05 583.987 118.231 589.299 117.809C594.612 117.472 597.479 115.111 598.829 110.304C600.853 102.63 592.841 95.546 584.83 97.9073Z" fill="white"/>
<path d="M844.649 97.8221C838.746 99.6774 835.457 106.086 837.65 111.568C839.42 115.7 843.468 118.061 848.697 118.061C852.154 118.061 853.166 117.64 855.527 115.278C859.069 111.737 859.997 107.52 858.142 103.557C855.949 98.9184 849.709 96.3042 844.649 97.8221Z" fill="white"/>
<path d="M628.511 109.376L621.511 120.17L627.667 120.423L633.739 120.676L639.221 114.773L644.702 108.954L649.762 114.773L654.737 120.591H661.315H667.893L660.725 109.797L653.641 99.0873L644.533 98.8343L635.426 98.6657L628.511 109.376Z" fill="white"/>
<path d="M520.316 100.943C506.402 103.22 493.583 112.75 487.427 125.315C474.272 152.132 488.861 184.346 517.111 191.008C527.906 193.538 540.977 191.682 550.59 186.201C554.891 183.755 565.011 174.479 565.011 173.045C564.927 172.287 551.096 162.757 550.084 162.757C549.663 162.757 547.723 164.444 545.699 166.468C535.495 176.84 518.882 176.756 509.269 166.383C503.619 160.227 502.185 156.179 502.185 146.313C502.185 138.808 502.438 137.374 504.546 133.073C509.1 123.881 517.364 118.568 527.484 118.568C534.821 118.568 540.302 120.845 545.699 126.158L549.494 129.869L556.831 124.809C560.879 121.942 564.168 119.243 564.168 118.737C564.168 116.797 554.132 108.196 548.82 105.582C540.134 101.365 528.918 99.5098 520.316 100.943Z" fill="white"/>
<path d="M634.836 130.627C628.764 132.651 624.969 135.012 621.175 139.144C613.163 148.083 611.055 160.986 615.693 173.298C618.139 179.96 625.475 187.212 632.137 189.658C641.751 193.284 653.136 192.778 662.412 188.393C666.881 186.369 672.616 181.141 671.857 179.876C671.604 179.538 668.737 177.346 665.363 175.069L659.376 170.937L657.521 172.708C650.1 179.623 631.631 175.997 631.631 167.648C631.631 166.214 633.149 166.13 653.642 166.13H675.652L675.314 158.709C674.893 149.433 672.278 143.361 666.291 137.542C658.617 130.037 645.377 127.17 634.836 130.627ZM650.859 146.228C653.726 147.746 656.593 150.782 657.352 153.227L657.858 155.167H644.787C637.535 155.167 631.631 154.914 631.631 154.492C631.631 152.89 635.258 148.252 637.703 146.734C640.992 144.71 647.485 144.457 650.859 146.228Z" fill="white"/>
<path d="M719.419 130.374C717.395 131.133 714.275 133.241 712.504 135.012L709.215 138.301V134.506V130.711H700.36H691.506V160.648V190.585H700.36H709.215V172.792C709.215 153.143 709.805 150.276 714.359 147.999C717.901 146.143 723.72 146.396 726.503 148.589C730.635 151.878 731.141 154.408 731.141 173.298V190.585H740.08H748.935L748.682 167.985C748.429 146.565 748.344 145.3 746.489 141.252C744.128 136.108 741.851 133.578 737.466 131.386C732.996 129.024 724.395 128.603 719.419 130.374Z" fill="white"/>
<path d="M788.485 130.12C781.907 131.976 776.594 135.18 772.462 139.734C767.233 145.468 764.704 151.877 764.619 159.804C764.451 174.647 772.884 186.115 787.388 190.585C799.363 194.295 812.434 191.26 820.53 182.827L823.903 179.453L816.988 174.478C810.326 169.671 807.88 168.575 807.88 170.261C807.88 172.117 801.724 174.815 797.424 174.815C788.653 174.815 782.581 168.996 782.581 160.648C782.581 152.299 788.653 146.48 797.592 146.48C801.303 146.48 802.736 146.986 805.857 149.179L809.651 151.793L816.398 147.155C820.024 144.541 823.06 142.011 823.06 141.505C823.06 139.734 816.651 134.59 811.422 132.144C805.182 129.193 794.809 128.265 788.485 130.12Z" fill="white"/>
<path d="M894.656 130.628C876.356 136.446 868.092 156.686 876.44 174.901C881.331 185.526 895.246 193.453 906.293 191.935C910.847 191.345 917.256 188.647 919.786 186.201L921.725 184.43V187.466V190.586H930.58H939.435V160.649V130.712H930.58H921.725V133.748V136.784L918.774 134.169C913.124 129.278 903.426 127.845 894.656 130.628ZM911.016 146.819C915.232 147.915 919.702 151.963 920.967 155.758C923.159 162.336 919.955 170.263 913.883 173.383C910.51 175.154 903.51 175.238 900.053 173.467C888.499 167.48 889.596 151.541 901.992 147.156C906.04 145.723 906.968 145.638 911.016 146.819Z" fill="white"/>
<path d="M971.732 130.458C961.866 133.832 956.89 139.735 956.975 148.083C956.975 152.974 958.408 156.263 961.95 159.468C965.323 162.588 968.106 163.937 978.226 166.889C986.068 169.166 989.189 170.852 989.189 172.961C989.189 173.298 988.345 174.647 987.333 175.828C983.792 179.876 975.359 178.358 972.997 173.214C972.07 171.274 971.732 171.19 963.637 171.19H955.288L955.878 174.31C957.902 185.526 969.877 193.115 983.707 192.019C1000.91 190.67 1010.78 179.538 1005.63 167.142C1002.93 160.817 997.959 157.613 985.816 154.324C981.852 153.312 977.973 152.131 977.214 151.709C975.021 150.529 974.515 147.662 976.202 145.806C979.153 142.518 988.345 144.373 988.345 148.252C988.345 148.927 990.875 149.264 996.778 149.264C1006.22 149.264 1006.05 149.348 1004.28 143.108C1003.1 138.638 998.465 133.832 993.237 131.555C987.249 129.025 977.636 128.519 971.732 130.458Z" fill="white"/>
<path d="M579.346 160.648V190.585H588.201H597.055V160.648V130.711H588.201H579.346V160.648Z" fill="white"/>
<path d="M839.083 160.648V190.585H847.938H856.792V160.648V130.711H847.938H839.083V160.648Z" fill="white"/>
<path d="M728.355 218.162C728.018 218.415 727.765 238.401 727.765 262.435V306.118H734.09H740.415V302.239V298.275L744.041 301.648C748.679 305.949 752.727 307.383 760.232 307.299C771.617 307.214 781.062 301.227 785.784 291.107C787.724 286.891 788.061 285.204 788.061 277.867C788.061 270.531 787.808 268.844 785.868 264.796C781.821 256.11 776.676 251.725 767.738 249.111C759.136 246.665 749.607 248.521 743.366 253.918L740.415 256.532V237.052V217.571H734.68C731.476 217.571 728.608 217.824 728.355 218.162ZM768.834 263.616C773.135 267.157 774.99 270.531 775.58 276.012C776.255 282.421 773.219 288.999 768.159 292.372C765.039 294.48 763.774 294.733 758.04 294.733C752.052 294.733 751.293 294.565 748.342 292.119C742.692 287.565 741.68 285.626 741.427 278.458C741.174 272.47 741.342 271.627 743.619 268.085C747.245 262.519 751.715 260.411 759.558 260.748C764.87 261.001 765.967 261.339 768.834 263.616Z" fill="white"/>
<path d="M642.003 220.438C640.148 222.04 639.642 223.136 639.642 226.003C639.642 230.641 642.762 233.593 647.738 233.593C655.58 233.593 658.954 224.232 652.798 219.51C650.436 217.655 644.618 218.161 642.003 220.438Z" fill="white"/>
<path d="M493.497 253.58L493.75 285.457L495.943 290.179C501.677 302.323 516.266 309.659 529.59 307.129C540.553 305.106 548.48 299.371 552.95 290.263L555.311 285.457L555.564 253.58L555.817 221.788H549.492H543.167L542.914 251.978L542.661 282.252L540.132 286.384C537.011 291.528 530.518 295.155 524.531 295.155C518.796 295.155 512.303 291.613 509.267 286.89L506.821 283.011V252.399V221.788H500.075H493.244L493.497 253.58Z" fill="white"/>
<path d="M579.346 263.952V306.117H602.959H626.571V300.214V294.311H609.705H592.839V258.049V221.787H586.093H579.346V263.952Z" fill="white"/>
<path d="M683.915 249.195C673.29 252.484 668.483 262.688 673.037 272.133C675.314 276.855 680.795 280.06 690.83 282.505C699.095 284.613 702.468 286.637 702.468 289.673C702.468 294.564 699.179 296.841 692.011 296.841C688.301 296.841 686.951 296.42 684.843 294.733C683.494 293.552 682.06 291.782 681.807 290.938C681.301 289.505 680.458 289.252 675.398 289.252C668.736 289.252 668.483 289.673 671.182 295.576C675.482 304.768 685.855 309.238 697.83 306.961C710.564 304.6 716.551 296.082 713.431 284.866C711.66 278.71 706.263 275.422 690.999 271.542C689.06 271.121 686.53 269.94 685.265 268.928C680.121 264.88 684.337 258.893 692.433 258.893C695.384 258.893 696.396 259.399 698.757 261.844C701.372 264.627 701.793 264.796 707.106 264.796H712.756L712.166 262.013C711.829 260.579 711.07 258.303 710.395 257.122C706.6 249.701 694.204 245.99 683.915 249.195Z" fill="white"/>
<path d="M821.458 249.701C816.988 251.135 815.049 252.4 810.832 256.616C807.122 260.327 805.182 263.109 804.17 266.061C798.52 282.758 805.435 299.54 820.446 305.359C826.939 307.973 836.806 307.973 843.383 305.443C855.527 300.636 862.526 289.167 861.683 275.422C860.84 262.688 853.672 253.412 841.697 249.617C835.035 247.508 828.373 247.508 821.458 249.701ZM839.757 262.182C845.829 265.302 849.202 270.783 849.202 277.446C849.202 287.987 842.203 295.155 831.915 295.155C813.446 295.155 807.796 270.699 824.325 262.013C827.951 260.074 835.878 260.158 839.757 262.182Z" fill="white"/>
<path d="M897.017 248.773C880.657 252.905 871.718 270.277 877.031 287.649C878.633 292.962 879.561 294.48 884.03 298.949C890.271 305.19 895.499 307.298 904.438 307.298C911.016 307.298 917.088 305.19 921.135 301.311L923.412 299.034V302.576V306.117H929.737H936.062V277.445V248.689L929.99 248.942L923.834 249.195L923.581 252.821L923.328 256.532L921.051 254.17C916.16 249.279 905.113 246.749 897.017 248.773ZM913.967 262.182C920.039 265.302 923.412 270.783 923.412 277.614C923.328 288.071 916.244 295.155 905.787 295.155C900.559 295.155 898.282 294.311 894.403 290.854C890.018 287.059 888.584 283.77 888.584 277.867C888.584 267.41 895.246 260.579 905.45 260.579C909.076 260.579 911.859 261.085 913.967 262.182Z" fill="white"/>
<path d="M641.749 277.445V306.117H648.074H654.399L654.23 277.614L653.977 249.195L647.905 248.942L641.749 248.689V277.445Z" fill="white"/>
</svg>
