<svg width="781" height="409" viewBox="0 0 781 409" fill="none" xmlns="http://www.w3.org/2000/svg">
<path d="M587.299 90.0179C586.875 90.0179 586.663 89.8061 586.663 89.3825L586.918 2.07548C586.918 1.73658 587.087 1.56714 587.426 1.56714H628.132C628.556 1.56714 628.768 1.73658 628.768 2.07548V16.436C628.768 16.7749 628.598 16.9444 628.259 16.9444H602.182V36.6424H628.259C628.598 36.6424 628.768 36.8542 628.768 37.2779L628.895 51.6384C628.895 51.9773 628.683 52.1467 628.259 52.1467H602.182V89.3825C602.182 89.8061 601.97 90.0179 601.546 90.0179H587.299ZM641.955 90.0179C641.616 90.0179 641.446 89.8061 641.446 89.3825L641.573 2.20256C641.573 1.77895 641.785 1.56714 642.209 1.56714H656.329C656.753 1.56714 656.965 1.77895 656.965 2.20256L656.838 74.3865H683.042C683.466 74.3865 683.678 74.5983 683.678 75.0219V89.3825C683.678 89.8061 683.466 90.0179 683.042 90.0179H641.955ZM693.526 90.0179C693.271 90.0179 693.144 89.8484 693.144 89.5095L693.271 53.4176L676.226 2.07548C676.141 1.73658 676.268 1.56714 676.607 1.56714H690.727C691.151 1.56714 691.406 1.73658 691.49 2.07548L700.903 36.2612L710.444 2.07548C710.529 1.73658 710.741 1.56714 711.08 1.56714H725.327C725.666 1.56714 725.793 1.73658 725.708 2.07548L708.536 52.9092L708.663 89.5095C708.663 89.8484 708.493 90.0179 708.154 90.0179H693.526ZM587.172 248.873C586.833 248.873 586.663 248.662 586.663 248.238L586.79 160.931C586.79 160.592 587.002 160.423 587.426 160.423H601.546C601.97 160.423 602.182 160.592 602.182 160.931L602.055 195.498H621.136V160.931C621.136 160.592 621.305 160.423 621.644 160.423H635.764C636.188 160.423 636.4 160.592 636.4 160.931L636.655 248.238C636.655 248.662 636.443 248.873 636.019 248.873H621.772C621.348 248.873 621.136 248.662 621.136 248.238V210.875H602.055V248.238C602.055 248.662 601.885 248.873 601.546 248.873H587.172ZM647.674 248.873C647.25 248.873 647.038 248.662 647.038 248.238L647.165 160.931C647.165 160.592 647.334 160.423 647.674 160.423H661.921C662.26 160.423 662.429 160.592 662.429 160.931L662.557 248.238C662.557 248.662 662.387 248.873 662.048 248.873H647.674ZM697.024 250.144C692.444 250.144 688.289 249 684.558 246.713C680.826 244.425 677.816 241.375 675.526 237.563C673.321 233.666 672.219 229.345 672.219 224.6V184.315C672.219 179.739 673.321 175.546 675.526 171.733C677.816 167.836 680.826 164.744 684.558 162.456C688.374 160.168 692.529 159.025 697.024 159.025C701.688 159.025 705.886 160.168 709.617 162.456C713.433 164.659 716.444 167.666 718.648 171.479C720.853 175.292 721.956 179.57 721.956 184.315V190.16C721.956 190.499 721.744 190.669 721.32 190.669H707.073C706.734 190.669 706.564 190.499 706.564 190.16V185.331C706.564 182.112 705.631 179.443 703.766 177.325C701.985 175.207 699.737 174.148 697.024 174.148C694.564 174.148 692.36 175.164 690.409 177.198C688.543 179.231 687.611 181.603 687.611 184.315V224.6C687.611 227.396 688.543 229.811 690.409 231.844C692.275 233.793 694.48 234.767 697.024 234.767C699.737 234.767 701.985 233.793 703.766 231.844C705.631 229.895 706.564 227.481 706.564 224.6V218.373H697.66C697.236 218.373 697.024 218.161 697.024 217.738V203.504C697.024 203.081 697.236 202.869 697.66 202.869H721.447C721.786 202.869 721.956 203.081 721.956 203.504V224.6C721.956 229.345 720.811 233.666 718.521 237.563C716.316 241.375 713.348 244.425 709.617 246.713C705.886 249 701.688 250.144 697.024 250.144ZM731.517 248.873C731.178 248.873 731.008 248.662 731.008 248.238L731.136 160.931C731.136 160.592 731.348 160.423 731.772 160.423H745.891C746.315 160.423 746.527 160.592 746.527 160.931L746.4 195.498H765.481V160.931C765.481 160.592 765.651 160.423 765.99 160.423H780.109C780.533 160.423 780.745 160.592 780.745 160.931L781 248.238C781 248.662 780.788 248.873 780.364 248.873H766.117C765.693 248.873 765.481 248.662 765.481 248.238V210.875H746.4V248.238C746.4 248.662 746.231 248.873 745.891 248.873H731.517ZM610.069 409C605.574 409 601.419 407.856 597.603 405.568C593.787 403.196 590.734 400.061 588.444 396.164C586.239 392.267 585.137 387.988 585.137 383.329L585.391 319.786C585.391 319.448 585.561 319.278 585.9 319.278H600.147C600.486 319.278 600.656 319.448 600.656 319.786V383.329C600.656 386.209 601.546 388.666 603.327 390.7C605.193 392.648 607.44 393.623 610.069 393.623C612.783 393.623 615.03 392.648 616.811 390.7C618.676 388.666 619.609 386.209 619.609 383.329V319.786C619.609 319.448 619.779 319.278 620.118 319.278H634.365C634.704 319.278 634.874 319.448 634.874 319.786L635.128 383.329C635.128 388.073 633.983 392.394 631.694 396.291C629.489 400.189 626.478 403.281 622.662 405.568C618.931 407.856 614.733 409 610.069 409ZM645.681 407.729C645.342 407.729 645.172 407.517 645.172 407.093L645.299 319.914C645.299 319.49 645.511 319.278 645.935 319.278H660.055C660.479 319.278 660.691 319.49 660.691 319.914L660.564 392.097H686.768C687.192 392.097 687.404 392.309 687.404 392.733V407.093C687.404 407.517 687.192 407.729 686.768 407.729H645.681Z" fill="white"/>
<path d="M555.074 0H539.174V407.729H555.074V0Z" fill="white"/>
<path d="M139.154 102.493C134.721 105.569 130.673 110.374 129.903 113.065C129.324 115.756 129.131 126.328 129.517 136.708C130.288 153.622 131.252 157.658 140.31 180.34C145.707 193.987 153.994 210.902 158.427 217.821C163.053 224.741 180.592 244.539 197.552 262.03C231.859 297.205 237.063 303.548 237.063 310.852V315.85H254.024C263.274 315.85 271.948 315.081 273.49 314.12C280.042 309.891 267.322 295.475 213.164 245.692C177.701 213.4 165.944 196.678 151.489 157.851C143.394 135.939 141.659 113.642 147.249 102.878C151.296 95.1891 149.176 95.1891 139.154 102.493Z" fill="white"/>
<path d="M165.365 98.8413C162.475 100.379 161.896 103.647 161.896 117.102C161.896 131.133 162.86 135.939 169.413 153.43C183.483 191.68 196.396 207.25 254.216 255.111C294.883 288.94 307.989 301.818 309.723 310.468L310.88 315.85H329.961C348.848 315.85 349.041 315.85 347.692 311.429C343.259 297.013 333.815 287.979 279.464 245.692C234.171 210.517 220.102 197.831 206.996 180.532C193.312 162.464 189.65 149.393 194.661 136.131C197.36 128.827 201.407 128.25 216.633 133.248C230.124 137.668 230.317 137.668 224.149 139.398C213.549 142.281 213.549 152.469 224.342 169.384C233.979 184.76 242.652 192.257 298.738 233.775C329.961 257.033 359.449 279.521 364.074 283.942C373.711 292.976 383.541 307.393 383.541 312.39C383.541 315.466 385.468 315.85 403.007 315.85H422.473L421.124 310.66C417.269 294.899 396.261 271.257 370.82 254.342C362.532 248.575 347.307 237.811 337.284 230.315C327.262 222.819 307.218 208.403 292.955 198.6C255.372 172.651 250.554 167.462 250.554 153.43C250.554 147.087 250.94 146.702 256.914 146.702C260.191 146.702 267.9 148.048 273.682 149.586C289.872 153.814 296.81 153.238 306.832 146.702C314.542 141.513 321.866 133.632 321.866 130.365C321.866 129.788 318.011 129.404 313.385 129.404C307.796 129.404 303.363 130.749 299.701 133.632C293.534 138.437 277.344 140.359 269.827 137.284C265.009 135.362 265.009 135.362 270.984 135.362C274.068 135.17 278.501 133.824 280.621 132.287C284.09 129.788 283.704 129.596 275.609 129.596C270.791 129.596 264.045 130.749 260.576 132.095L254.023 134.401L261.54 139.59C268.093 144.396 268.478 144.78 264.238 144.78C260.962 144.78 255.758 140.744 246.507 130.941C239.376 123.253 233.015 117.486 232.437 118.063C231.666 118.639 232.823 121.33 234.75 123.829C239.761 130.172 245.158 140.936 243.423 140.936C238.605 140.744 231.473 134.017 221.837 120.754C212.392 107.491 209.695 104.992 200.443 101.148C189.072 96.5347 171.147 95.3814 165.365 98.8413Z" fill="white"/>
<path d="M114.869 121.522C105.811 131.517 101.378 170.729 106.775 193.218C112.749 218.782 121.037 236.081 143.201 269.142C159.198 293.169 164.595 302.587 164.595 307.584L164.787 313.927H183.676C201.985 313.927 202.371 313.735 202.371 309.506C202.371 303.548 193.89 290.862 178.472 273.563C148.02 239.733 135.106 218.398 122.964 182.262C117.375 166.116 117.182 163.617 117.953 141.513C118.339 128.442 118.532 117.871 118.532 117.871C118.339 117.871 116.604 119.6 114.869 121.522Z" fill="white"/>
<path d="M85.7665 131.517C83.6464 134.785 85.3812 134.977 90.5849 132.286C95.2104 129.596 95.2104 129.596 91.1631 129.403C88.8501 129.403 86.3447 130.364 85.7665 131.517Z" fill="white"/>
<path d="M340.754 132.671C339.212 134.593 334.587 142.089 330.732 149.201L323.408 162.272L308.182 160.926C297.582 160.157 292.956 160.349 292.956 161.695C292.956 164.578 312.037 176.687 329.576 184.76C341.14 190.142 348.078 195.332 364.268 211.094C375.446 221.857 389.709 233.967 396.069 238.003C426.135 256.84 448.107 282.981 455.817 309.122L458.129 316.811L476.824 317.387C498.218 317.964 497.64 318.733 491.472 299.127C488.388 289.324 488.003 283.558 488.774 268.373L489.738 249.536L475.282 231.276C467.188 221.281 459.864 212.824 459.093 212.439C458.322 212.247 456.78 213.977 455.817 216.284C452.54 223.779 445.023 222.818 420.546 211.478C408.018 205.712 390.479 198.408 381.614 195.14C357.522 186.682 355.016 185.145 349.042 176.495L343.645 168.423L351.933 150.547C356.558 140.744 360.413 131.902 360.413 131.133C360.413 127.866 343.838 129.211 340.754 132.671Z" fill="white"/>
<path d="M381.421 131.325C379.687 132.286 375.447 140.744 371.977 149.97C368.508 159.197 364.268 168.422 362.726 170.345C360.028 173.42 360.028 173.997 362.34 175.534C363.882 176.688 368.315 177.456 371.977 177.456C382.577 177.456 388.745 171.113 393.178 155.352C397.996 138.63 397.996 133.824 393.371 131.325C388.745 129.019 385.469 129.019 381.421 131.325Z" fill="white"/>
<path d="M85.1883 144.011C76.1297 150.162 65.7223 159.389 60.7115 165.731C46.2563 183.799 49.3399 183.031 73.6243 162.08C82.1046 154.583 78.2498 159.581 59.7474 179.186C45.4851 194.371 32.7648 207.25 31.4156 207.634C28.3319 208.787 -0.770966 246.653 0.578197 247.806C2.31279 249.536 26.0191 228.008 37.5831 213.977C61.2892 185.145 62.2533 185.145 43.7509 213.016C30.2593 233.198 16.5751 250.69 6.93842 259.915C0.385429 266.259 0 267.22 0 279.714V292.976L8.28753 282.789C24.6699 262.799 41.0526 235.697 60.5186 196.87C70.5407 177.264 74.2026 174.189 66.6859 192.065C54.7366 219.935 36.6195 268.373 35.6558 274.908C33.5357 287.402 30.452 295.283 24.8627 303.74L19.4661 312.005H38.5466C56.2784 312.005 57.8202 311.621 59.9403 307.777C64.1805 299.704 64.9516 291.439 63.2169 270.68C61.6751 252.035 62.0604 247.422 66.3005 225.51C72.2754 195.332 87.3084 150.547 91.5485 150.547C91.9344 150.547 90.5849 155.352 88.6578 161.311C76.5156 196.486 76.1297 230.315 87.6942 266.643C95.018 290.285 96.3669 299.512 93.6686 308.545L92.1267 313.927H109.28C127.783 313.927 131.059 312.582 131.059 304.317C131.059 301.626 124.121 285.288 115.833 267.989C97.1381 229.738 93.4762 216.283 93.8615 188.989C94.0544 170.537 96.1745 159.389 103.113 137.476C103.884 135.169 103.691 133.247 102.727 133.247C101.764 133.247 93.8615 138.053 85.1883 144.011Z" fill="white"/>
<path d="M411.68 164.579C409.946 175.727 404.934 179.956 392.599 181.301L382.577 182.263L397.996 187.837C420.16 195.718 426.521 196.294 430.568 190.72C432.302 188.221 433.652 184.569 433.652 182.647C433.652 179.379 417.848 158.043 414.378 156.698C413.608 156.314 412.258 159.966 411.68 164.579Z" fill="white"/>
</svg>
