<svg width="100" height="100" viewBox="0 0 100 100" fill="none" xmlns="http://www.w3.org/2000/svg">
<g clip-path="url(#clip0_198_8)">
<path d="M3.84615 0C1.72692 0 0 1.72692 0 3.84615V65.3846C0 67.5038 1.72692 69.2308 3.84615 69.2308H65.3846C67.5038 69.2308 69.2308 67.5038 69.2308 65.3846V3.84615C69.2308 1.72692 67.5038 0 65.3846 0H3.84615ZM7.69231 7.69231H61.5385V53.8462H7.69231V7.69231ZM73.0769 11.1769V18.9885L80.05 20.1923L73.0769 60.5769V65.3846C73.0769 69.6308 69.6269 73.0769 65.3846 73.0769H24.6385L73.4385 81.4923C74.4426 81.6665 75.4749 81.4351 76.3085 80.8488C77.1422 80.2625 77.709 79.3693 77.8846 78.3654L88.2231 17.6692C88.3104 17.1717 88.2988 16.6618 88.1889 16.1687C88.0789 15.6757 87.8729 15.2091 87.5824 14.7958C87.292 14.3825 86.9229 14.0305 86.4963 13.7599C86.0696 13.4894 85.5939 13.3057 85.0962 13.2192L73.0769 11.1769ZM34.6154 15.1423C30.1885 15.1423 26.4423 18.1885 26.4423 23.9192C26.4423 27.6654 28.1115 31.4269 30.4077 33.7731C31.3077 36.1192 29.7769 37.0115 29.4462 37.1385C24.8077 38.8154 19.35 41.9269 19.35 44.95V49.8808H49.8808V44.9538C49.8808 41.8385 44.4115 38.7462 39.5423 37.1385C39.3192 37.0654 37.9385 36.4462 38.8231 33.7731C41.1115 31.4269 42.9077 27.6462 42.9077 23.9192C42.9077 18.1885 39.0423 15.1423 34.6154 15.1423ZM90.0231 30.4115L88.7038 37.9808L91.4654 38.5808L80.8885 83.5346L79.3269 83.1731C78.4691 84.0183 77.4208 84.645 76.2702 85.0004C75.1196 85.3559 73.9004 85.4296 72.7154 85.2154L19.4731 76.0808L18.3846 80.6538C18.158 81.6568 18.333 82.7086 18.8721 83.5841C19.4112 84.4596 20.2716 85.0894 21.2692 85.3385L81.1269 99.4038C82.1298 99.6305 83.1816 99.4555 84.0572 98.9164C84.9327 98.3772 85.5624 97.5168 85.8115 96.5192L99.7615 36.6538C100.25 34.5923 99.0692 32.4577 97 31.9654L90.0269 30.4038L90.0231 30.4115Z" fill="white"/>
</g>
<defs>
<clipPath id="clip0_198_8">
<rect width="100" height="100" fill="white"/>
</clipPath>
</defs>
</svg>
