<svg width="100" height="100" viewBox="0 0 100 100" fill="none" xmlns="http://www.w3.org/2000/svg">
<path d="M45.8333 70.8333H54.1666V45.8333H45.8333V70.8333ZM49.9999 37.5C51.1805 37.5 52.1708 37.1 52.9708 36.3C53.7708 35.5 54.1694 34.5111 54.1666 33.3333C54.1638 32.1555 53.7638 31.1666 52.9666 30.3666C52.1694 29.5666 51.1805 29.1666 49.9999 29.1666C48.8194 29.1666 47.8305 29.5666 47.0333 30.3666C46.236 31.1666 45.836 32.1555 45.8333 33.3333C45.8305 34.5111 46.2305 35.5014 47.0333 36.3041C47.836 37.1069 48.8249 37.5055 49.9999 37.5ZM49.9999 91.6666C44.236 91.6666 38.8194 90.5722 33.7499 88.3833C28.6805 86.1944 24.2708 83.2264 20.5208 79.4791C16.7708 75.7319 13.8027 71.3222 11.6166 66.25C9.43048 61.1778 8.33604 55.7611 8.33326 50C8.33048 44.2389 9.42492 38.8222 11.6166 33.75C13.8083 28.6778 16.7763 24.268 20.5208 20.5208C24.2652 16.7736 28.6749 13.8055 33.7499 11.6166C38.8249 9.42776 44.2416 8.33331 49.9999 8.33331C55.7583 8.33331 61.1749 9.42776 66.2499 11.6166C71.3249 13.8055 75.7346 16.7736 79.4791 20.5208C83.2235 24.268 86.193 28.6778 88.3874 33.75C90.5819 38.8222 91.6749 44.2389 91.6666 50C91.6583 55.7611 90.5638 61.1778 88.3833 66.25C86.2027 71.3222 83.2346 75.7319 79.4791 79.4791C75.7235 83.2264 71.3138 86.1958 66.2499 88.3875C61.186 90.5791 55.7694 91.6722 49.9999 91.6666Z" fill="white"/>
</svg>
