<svg width="100" height="100" viewBox="0 0 100 100" fill="none" xmlns="http://www.w3.org/2000/svg">
<path d="M62.4999 62.5H79.1666L91.6666 91.6666H8.33325L20.8333 62.5H37.4999M54.1666 33.3333C54.1666 34.4384 53.7276 35.4982 52.9462 36.2796C52.1648 37.061 51.105 37.5 49.9999 37.5C48.8948 37.5 47.835 37.061 47.0536 36.2796C46.2722 35.4982 45.8333 34.4384 45.8333 33.3333C45.8333 32.2282 46.2722 31.1684 47.0536 30.387C47.835 29.6056 48.8948 29.1666 49.9999 29.1666C51.105 29.1666 52.1648 29.6056 52.9462 30.387C53.7276 31.1684 54.1666 32.2282 54.1666 33.3333ZM24.9999 33.3333C24.9999 54.1666 49.9999 75 49.9999 75C49.9999 75 74.9999 54.1666 74.9999 33.3333C74.9999 19.0958 63.8082 8.33331 49.9999 8.33331C36.1916 8.33331 24.9999 19.0958 24.9999 33.3333Z" stroke="white" stroke-width="8.33333"/>
</svg>
