<svg width="100" height="100" viewBox="0 0 100 100" fill="none" xmlns="http://www.w3.org/2000/svg">
<path d="M70.8333 50V33.3333C70.8333 31.1232 69.9554 29.0036 68.3926 27.4408C66.8297 25.878 64.7101 25 62.5 25H20.8333C18.6232 25 16.5036 25.878 14.9408 27.4408C13.378 29.0036 12.5 31.1232 12.5 33.3333V66.6667C12.5 68.8768 13.378 70.9964 14.9408 72.5592C16.5036 74.122 18.6232 75 20.8333 75H62.5C64.7101 75 66.8297 74.122 68.3926 72.5592C69.9554 70.9964 70.8333 68.8768 70.8333 66.6667V50ZM70.8333 50L87.5 33.3333V66.6667L70.8333 50Z" stroke="white" stroke-width="8.33333" stroke-linecap="round" stroke-linejoin="round"/>
</svg>
