<svg width="106" height="106" viewBox="0 0 106 106" fill="none" xmlns="http://www.w3.org/2000/svg">
<path d="M53 22.0833V9.76076C53 7.77326 50.615 6.8016 49.2459 8.21493L32.4625 24.9541C31.5792 25.8374 31.5792 27.2066 32.4625 28.0899L49.2017 44.8291C50.615 46.1983 53 45.2266 53 43.2391V30.9166C69.4742 30.9166 82.5034 46.0216 78.8817 63.1141C76.8059 73.1399 68.6792 81.2224 58.6975 83.2983C42.93 86.6108 28.885 75.7899 26.765 61.1708C26.6076 60.1326 26.0854 59.1846 25.2922 58.4966C24.499 57.8086 23.4867 57.4257 22.4367 57.4166C19.7867 57.4166 17.6667 59.7574 18.02 62.4074C20.7584 81.7966 39.22 96.1508 60.1109 92.0874C73.8909 89.3933 84.9767 78.3074 87.6709 64.5274C92.0434 41.8699 74.8184 22.0833 53 22.0833Z" fill="white"/>
</svg>
