<svg width="45" height="45" viewBox="0 0 45 45" fill="none" xmlns="http://www.w3.org/2000/svg">
<path d="M30.1135 40.3987C30.6407 39.8713 30.9369 39.156 30.9369 38.4103C30.9369 37.6645 30.6407 36.9493 30.1135 36.4218L16.1916 22.5L30.1135 8.57808C30.6258 8.04764 30.9093 7.33719 30.9029 6.59976C30.8965 5.86233 30.6007 5.15692 30.0792 4.63546C29.5578 4.114 28.8523 3.81822 28.1149 3.81181C27.3775 3.8054 26.6671 4.08889 26.1366 4.60121L10.2263 20.5115C9.69903 21.0389 9.40283 21.7542 9.40283 22.5C9.40283 23.2457 9.69903 23.961 10.2263 24.4884L26.1366 40.3987C26.664 40.926 27.3793 41.2222 28.125 41.2222C28.8708 41.2222 29.5861 40.926 30.1135 40.3987Z" fill="white"/>
</svg>
